<svg width="531" height="117" viewBox="0 0 531 117" fill="none" xmlns="http://www.w3.org/2000/svg">
<g clip-path="url(#clip0_1217_36)">
<path d="M129.032 88.352C127.496 88.352 125.736 87.552 123.752 85.952C121.832 84.416 119.752 82.368 117.512 79.808C115.336 77.248 113.192 74.432 111.08 71.36C108.968 68.288 106.952 65.216 105.032 62.144C103.176 59.008 101.576 56.16 100.232 53.6L91.496 81.824C91.048 83.36 90.216 84.448 89 85.088C87.848 85.792 86.568 86.208 85.16 86.336C83.752 86.528 82.408 86.624 81.128 86.624C82.024 84.64 82.92 82.496 83.816 80.192C84.712 77.952 85.704 75.232 86.792 72.032C87.88 68.832 89.192 64.96 90.728 60.416C92.328 55.872 94.248 50.368 96.488 43.904C98.728 37.44 101.448 29.76 104.648 20.864C104.776 20.416 105 19.808 105.32 19.04C105.64 18.208 105.8 17.44 105.8 16.736C105.8 16.16 105.64 15.712 105.32 15.392C105.064 15.072 104.584 14.912 103.88 14.912C102.344 14.912 100.904 15.52 99.56 16.736C98.216 17.888 97 19.36 95.912 21.152C94.824 22.88 93.96 24.672 93.32 26.528C92.744 28.384 92.456 30.016 92.456 31.424C92.456 32.896 92.776 34.368 93.416 35.84C90.664 35.84 88.68 35.264 87.464 34.112C86.312 32.896 85.736 31.392 85.736 29.6C85.736 27.424 86.408 25.248 87.752 23.072C89.096 20.832 90.792 18.816 92.84 17.024C94.952 15.168 97.16 13.696 99.464 12.608C101.832 11.456 104.008 10.88 105.992 10.88C108.168 10.88 109.576 11.488 110.216 12.704C110.92 13.856 111.272 15.104 111.272 16.448C111.272 17.152 111.208 17.824 111.08 18.464C110.952 19.104 110.792 19.712 110.6 20.288L103.496 43.328C104.2 42.88 105 42.304 105.896 41.6C106.856 40.896 108.264 39.84 110.12 38.432C113.704 35.616 117.16 32.672 120.488 29.6C123.816 26.528 126.888 23.392 129.704 20.192C132.52 16.928 134.952 13.728 137 10.592C137.768 11.296 138.28 12.192 138.536 13.28C138.792 14.304 138.92 15.136 138.92 15.776C138.92 17.76 138.088 19.936 136.424 22.304C134.824 24.608 132.68 27.008 129.992 29.504C127.368 32 124.488 34.464 121.352 36.896C118.216 39.328 115.08 41.6 111.944 43.712C108.808 45.824 105.992 47.68 103.496 49.28C105.544 52.416 107.496 55.392 109.352 58.208C111.272 61.024 113.384 63.808 115.688 66.56C117.992 69.248 120.68 72.064 123.752 75.008C126.888 77.888 130.632 80.992 134.984 84.32C134.408 85.408 133.544 86.336 132.392 87.104C131.24 87.936 130.12 88.352 129.032 88.352ZM143.501 84.512C141.389 84.512 139.565 83.808 138.029 82.4C136.429 80.992 135.629 78.88 135.629 76.064C135.629 73.824 136.141 71.392 137.165 68.768C138.189 66.144 139.597 63.552 141.389 60.992C143.181 58.432 145.229 56.128 147.533 54.08C149.837 51.968 152.301 50.272 154.925 48.992C157.549 47.712 160.173 47.072 162.797 47.072C165.549 47.072 167.885 47.776 169.805 49.184C171.725 50.592 172.685 52.448 172.685 54.752C172.685 56.48 172.077 57.728 170.861 58.496C169.645 59.264 168.205 59.488 166.541 59.168C166.669 58.592 166.765 58.016 166.829 57.44C166.957 56.864 167.021 56.256 167.021 55.616C167.021 54.336 166.765 53.184 166.253 52.16C165.741 51.136 164.653 50.624 162.989 50.624C161.197 50.624 159.373 51.232 157.517 52.448C155.661 53.664 153.869 55.264 152.141 57.248C150.477 59.168 148.973 61.312 147.629 63.68C146.285 65.984 145.229 68.256 144.461 70.496C143.693 72.736 143.309 74.752 143.309 76.544C143.309 78.592 144.045 79.616 145.517 79.616C146.989 79.616 148.621 78.912 150.413 77.504C152.205 76.032 153.997 74.208 155.789 72.032C157.645 69.856 159.405 67.648 161.069 65.408C162.733 63.104 164.173 61.152 165.389 59.552C165.581 59.232 165.837 59.072 166.157 59.072C166.413 59.136 166.893 59.296 167.597 59.552C168.365 59.744 169.069 60.064 169.709 60.512C170.349 60.96 170.669 61.536 170.669 62.24C170.669 62.88 170.381 63.712 169.805 64.736C169.293 65.696 168.653 66.784 167.885 68C167.181 69.152 166.541 70.336 165.965 71.552C165.453 72.704 165.197 73.824 165.197 74.912C165.197 75.744 165.421 76.544 165.869 77.312C166.317 78.016 167.053 78.368 168.077 78.368C169.613 78.368 171.757 77.248 174.509 75.008C177.325 72.704 180.173 68.832 183.053 63.392L184.877 65.216C183.341 68.672 181.485 71.744 179.309 74.432C177.197 77.056 174.957 79.104 172.589 80.576C170.221 82.112 167.821 82.88 165.389 82.88C162.765 82.88 160.813 82.048 159.533 80.384C158.253 78.72 157.549 76.928 157.421 75.008C157.421 74.88 157.421 74.784 157.421 74.72C157.421 74.656 157.421 74.592 157.421 74.528C154.861 77.6 152.493 80.032 150.317 81.824C148.205 83.616 145.933 84.512 143.501 84.512ZM175.405 106.88C174.893 106.88 174.349 106.72 173.773 106.4C173.197 106.144 172.717 105.824 172.333 105.44C171.885 105.056 171.629 104.736 171.565 104.48C173.165 99.808 174.541 95.744 175.693 92.288C176.781 88.896 177.709 85.664 178.477 82.592C179.245 79.584 179.949 76.448 180.589 73.184C181.165 69.856 181.741 66.08 182.317 61.856C182.957 57.568 183.661 52.416 184.429 46.4C184.557 45.632 184.717 45.088 184.909 44.768C185.101 44.384 185.709 44.192 186.733 44.192C188.717 44.192 190.157 44.736 191.053 45.824C191.949 46.848 192.397 48 192.397 49.28C192.397 49.92 192.269 51.04 192.013 52.64C191.821 54.24 191.501 56.128 191.053 58.304C192.269 56.448 193.645 54.688 195.181 53.024C196.781 51.36 198.541 50.016 200.461 48.992C202.381 47.904 204.461 47.36 206.701 47.36C209.837 47.36 212.429 48.416 214.477 50.528C216.525 52.64 217.549 55.424 217.549 58.88C217.549 61.376 216.973 64.032 215.821 66.848C214.733 69.6 213.165 72.224 211.117 74.72C209.069 77.152 206.605 79.136 203.725 80.672C200.845 82.272 197.677 83.072 194.221 83.072C192.173 83.072 190.541 82.816 189.325 82.304C188.109 81.792 187.501 81.216 187.501 80.576C187.501 80.128 187.725 79.872 188.173 79.808C188.685 79.68 189.229 79.616 189.805 79.616C192.813 79.552 195.533 78.912 197.965 77.696C200.461 76.48 202.605 74.912 204.397 72.992C206.189 71.008 207.565 68.896 208.525 66.656C209.485 64.416 209.965 62.208 209.965 60.032C209.965 58.112 209.517 56.448 208.621 55.04C207.789 53.632 206.445 52.928 204.589 52.928C202.989 52.928 201.357 53.44 199.693 54.464C198.093 55.488 196.589 56.8 195.181 58.4C193.773 59.936 192.525 61.568 191.437 63.296C190.349 64.96 189.517 66.432 188.941 67.712C187.725 71.936 186.605 76.128 185.581 80.288C184.621 84.512 183.693 88.416 182.797 92C181.901 95.584 181.005 98.624 180.109 101.12C179.149 103.616 178.125 105.312 177.037 106.208C176.525 106.656 175.981 106.88 175.405 106.88ZM250.87 83.648C248.886 83.648 247.158 83.008 245.686 81.728C244.214 80.448 243.03 78.848 242.134 76.928C241.238 75.008 240.566 73.056 240.118 71.072C239.67 69.024 239.446 67.264 239.446 65.792C240.342 65.6 241.462 65.312 242.806 64.928C244.15 64.544 245.526 64.032 246.934 63.392C248.342 62.688 249.494 61.856 250.39 60.896C251.35 59.872 251.83 58.656 251.83 57.248C251.83 56.096 251.446 55.168 250.678 54.464C249.974 53.76 248.95 53.408 247.606 53.408C245.814 53.408 244.118 54.016 242.518 55.232C240.918 56.384 239.414 57.92 238.006 59.84C236.662 61.76 235.414 63.84 234.262 66.08C233.174 68.32 232.182 70.496 231.286 72.608C230.454 74.72 229.75 76.544 229.174 78.08C228.47 80 227.798 81.28 227.158 81.92C226.518 82.624 225.59 82.976 224.374 82.976C223.926 82.976 223.382 82.848 222.742 82.592C222.166 82.336 221.654 81.696 221.206 80.672C220.822 79.648 220.63 78.016 220.63 75.776C220.63 71.872 221.174 67.584 222.262 62.912C223.35 58.24 224.79 53.504 226.582 48.704C228.438 43.84 230.454 39.2 232.63 34.784C234.806 30.368 237.014 26.4 239.254 22.88C241.494 19.36 243.574 16.576 245.494 14.528C247.478 12.48 249.11 11.456 250.39 11.456C251.478 11.456 252.374 12.128 253.078 13.472C253.846 14.752 254.23 16.416 254.23 18.464C254.23 20.64 253.75 23.072 252.79 25.76C251.83 28.384 250.454 31.072 248.661 33.824C246.934 36.512 244.854 39.072 242.422 41.504C239.99 43.936 237.302 46.016 234.358 47.744C232.566 51.904 231.19 56.032 230.23 60.128C229.27 64.16 228.662 67.744 228.406 70.88C229.558 68.256 230.87 65.568 232.342 62.816C233.814 60.064 235.446 57.504 237.238 55.136C239.03 52.704 240.95 50.752 242.998 49.28C245.11 47.808 247.35 47.072 249.718 47.072C252.278 47.072 254.518 47.968 256.438 49.76C258.358 51.552 259.318 53.792 259.318 56.48C259.318 58.4 258.806 60.064 257.782 61.472C256.758 62.88 255.478 64.064 253.942 65.024C252.47 65.92 250.966 66.592 249.43 67.04C247.894 67.488 246.582 67.744 245.494 67.808C245.686 68.64 245.942 69.696 246.262 70.976C246.646 72.256 247.126 73.504 247.702 74.72C248.278 75.936 249.014 76.96 249.91 77.792C250.806 78.624 251.862 79.04 253.078 79.04C254.678 79.04 256.31 78.304 257.974 76.832C259.702 75.36 261.366 73.408 262.966 70.976C264.63 68.544 266.102 65.856 267.382 62.912L268.726 64.544C267.638 67.744 266.134 70.816 264.214 73.76C262.358 76.704 260.278 79.072 257.974 80.864C255.67 82.72 253.302 83.648 250.87 83.648ZM237.142 41.216C238.87 39.68 240.694 37.792 242.614 35.552C244.534 33.248 246.166 30.816 247.51 28.256C248.918 25.632 249.654 23.136 249.718 20.768C249.718 20.704 249.718 20.672 249.718 20.672C249.718 20.608 249.718 20.544 249.718 20.48C249.078 20.736 248.054 21.856 246.646 23.84C245.302 25.76 243.798 28.224 242.134 31.232C240.47 34.24 238.806 37.568 237.142 41.216ZM272.077 82.88C269.901 82.88 268.109 81.888 266.701 79.904C265.357 77.856 264.685 75.52 264.685 72.896C264.685 71.104 264.973 68.992 265.549 66.56C266.125 64.128 266.861 61.76 267.757 59.456C268.717 57.152 269.677 55.232 270.637 53.696C271.661 52.16 272.589 51.392 273.421 51.392C273.869 51.392 274.541 51.648 275.437 52.16C276.397 52.608 277.229 53.184 277.933 53.888C277.229 54.912 276.365 56.48 275.341 58.592C274.381 60.704 273.517 62.976 272.749 65.408C271.981 67.84 271.597 70.048 271.597 72.032C271.597 72.288 271.629 72.896 271.693 73.856C271.821 74.816 272.077 75.712 272.461 76.544C272.845 77.376 273.517 77.792 274.477 77.792C275.565 77.792 276.717 77.216 277.933 76.064C279.213 74.848 280.493 73.312 281.773 71.456C283.117 69.536 284.397 67.488 285.613 65.312C286.893 63.136 288.013 61.024 288.973 58.976C289.997 56.928 290.829 55.2 291.469 53.792C292.045 53.856 292.781 54.016 293.677 54.272C294.637 54.528 295.469 54.88 296.173 55.328C296.877 55.712 297.229 56.288 297.229 57.056C297.229 57.248 296.909 58.048 296.269 59.456C295.693 60.8 294.989 62.432 294.157 64.352C293.389 66.272 292.685 68.256 292.045 70.304C291.469 72.288 291.181 74.048 291.181 75.584C291.181 76.48 291.341 77.28 291.661 77.984C292.045 78.624 292.749 78.944 293.773 78.944C295.117 78.944 296.717 78.336 298.573 77.12C300.429 75.904 302.349 74.144 304.333 71.84C306.317 69.536 308.077 66.784 309.613 63.584L311.053 64.736C309.645 68.192 307.821 71.296 305.581 74.048C303.341 76.8 300.941 78.944 298.381 80.48C295.821 82.08 293.325 82.88 290.893 82.88C289.037 82.88 287.629 82.432 286.669 81.536C285.773 80.704 285.165 79.616 284.845 78.272C284.525 76.864 284.333 75.456 284.269 74.048C284.269 73.728 284.269 73.408 284.269 73.088C284.269 72.704 284.269 72.384 284.269 72.128C283.181 73.856 281.997 75.552 280.717 77.216C279.437 78.816 278.061 80.16 276.589 81.248C275.181 82.336 273.677 82.88 272.077 82.88ZM319.23 106.88C317.374 106.88 315.902 106.336 314.814 105.248C313.726 104.224 313.182 102.88 313.182 101.216C313.182 98.72 314.334 96.16 316.638 93.536C318.942 90.912 321.886 88.512 325.47 86.336C326.558 85.76 327.646 85.184 328.734 84.608C329.822 84.096 330.942 83.616 332.094 83.168C333.182 80.544 334.174 77.6 335.07 74.336C336.03 71.072 336.862 67.52 337.566 63.68C337.054 64.576 336.478 65.472 335.838 66.368C335.262 67.264 334.718 68.192 334.206 69.152L332.574 66.56C333.726 64.384 334.75 62.144 335.646 59.84C336.542 57.472 337.406 55.296 338.238 53.312C339.07 51.264 339.934 49.6 340.83 48.32C341.726 47.04 342.782 46.4 343.998 46.4C344.894 46.4 345.598 46.752 346.11 47.456C346.686 48.096 346.974 48.928 346.974 49.952C346.974 50.656 346.814 51.968 346.494 53.888C346.174 55.744 345.726 58.048 345.15 60.8C344.574 63.552 343.838 66.528 342.942 69.728C342.11 72.928 341.15 76.16 340.062 79.424C341.918 78.4 343.71 77.28 345.438 76.064C347.23 74.848 348.99 73.312 350.718 71.456C352.51 69.536 354.302 67.072 356.094 64.064L357.822 65.216C355.838 69.312 353.726 72.48 351.486 74.72C349.246 76.96 347.006 78.72 344.766 80C342.59 81.216 340.51 82.464 338.526 83.744C337.118 87.584 335.422 91.264 333.438 94.784C331.518 98.368 329.374 101.28 327.006 103.52C324.574 105.76 321.982 106.88 319.23 106.88ZM318.174 102.272C319.326 102.272 320.99 101.088 323.166 98.72C325.342 96.352 327.582 92.832 329.886 88.16C325.598 90.336 322.398 92.512 320.286 94.688C318.11 96.928 317.022 98.912 317.022 100.64C317.022 101.28 317.15 101.696 317.406 101.888C317.598 102.144 317.854 102.272 318.174 102.272ZM345.438 39.296C344.222 39.296 343.102 39.008 342.078 38.432C341.118 37.792 340.638 36.864 340.638 35.648C340.638 34.56 341.054 33.6 341.886 32.768C342.718 31.872 343.742 31.168 344.958 30.656C346.174 30.144 347.358 29.888 348.51 29.888C349.598 29.888 350.526 30.176 351.294 30.752C352.062 31.264 352.446 32.096 352.446 33.248C352.446 34.848 351.742 36.256 350.334 37.472C348.926 38.688 347.294 39.296 345.438 39.296ZM361.524 82.88C358.708 82.88 356.596 82.048 355.188 80.384C353.78 78.72 353.076 76.704 353.076 74.336C353.076 72.864 353.332 71.008 353.844 68.768C354.356 66.528 355.06 64.192 355.956 61.76C356.916 59.264 358.004 56.928 359.22 54.752C360.436 52.576 361.748 50.816 363.156 49.472C364.564 48.064 365.972 47.36 367.38 47.36C368.148 47.36 368.82 47.616 369.396 48.128C369.972 48.576 370.26 49.248 370.26 50.144C370.26 50.976 369.748 52.224 368.724 53.888C367.764 55.552 366.612 57.472 365.268 59.648C363.988 61.824 362.836 64.096 361.812 66.464C360.852 68.768 360.372 70.976 360.372 73.088C360.372 75.136 360.724 76.512 361.428 77.216C362.196 77.856 363.284 78.176 364.692 78.176C366.868 78.176 369.236 77.088 371.796 74.912C374.356 72.736 377.012 68.928 379.764 63.488L381.204 65.024C378.964 70.656 376.116 75.04 372.66 78.176C369.204 81.312 365.492 82.88 361.524 82.88ZM372.852 39.584C371.636 39.584 370.516 39.296 369.492 38.72C368.532 38.08 368.052 37.12 368.052 35.84C368.052 34.304 368.884 32.992 370.548 31.904C372.212 30.816 373.94 30.272 375.732 30.272C376.884 30.272 377.844 30.528 378.612 31.04C379.444 31.552 379.86 32.48 379.86 33.824C379.86 35.168 379.124 36.48 377.652 37.76C376.18 38.976 374.58 39.584 372.852 39.584ZM409.633 81.92C407.137 81.92 405.217 81.28 403.873 80C402.593 78.784 401.953 77.216 401.953 75.296C401.953 74.016 402.177 72.672 402.625 71.264C403.073 69.792 403.521 68.32 403.969 66.848C404.417 65.376 404.641 63.968 404.641 62.624C404.641 61.216 404.289 60.256 403.585 59.744C402.945 59.168 402.177 58.88 401.281 58.88C399.361 58.88 397.377 59.68 395.329 61.28C393.345 62.816 391.393 64.768 389.473 67.136C387.617 69.504 385.857 71.968 384.193 74.528C382.529 77.088 381.089 79.392 379.873 81.44C378.657 81.44 377.505 81.216 376.417 80.768C375.329 80.384 374.401 79.68 373.633 78.656C373.697 78.336 374.081 77.376 374.785 75.776C375.425 74.112 376.161 72.16 376.993 69.92C377.825 67.616 378.561 65.216 379.201 62.72C379.841 60.224 380.161 57.952 380.161 55.904C380.609 55.392 381.281 54.88 382.177 54.368C383.137 53.856 384.129 53.6 385.153 53.6C387.393 53.6 388.513 54.56 388.513 56.48C388.513 57.248 388.353 58.4 388.033 59.936C387.777 61.408 387.393 63.104 386.881 65.024C388.545 62.784 390.369 60.672 392.353 58.688C394.337 56.704 396.385 55.104 398.497 53.888C400.673 52.608 402.849 51.968 405.025 51.968C407.777 51.968 409.793 52.896 411.073 54.752C412.417 56.608 413.089 58.656 413.089 60.896C413.089 62.816 412.769 64.608 412.129 66.272C411.489 67.936 410.849 69.504 410.209 70.976C409.633 72.448 409.345 73.888 409.345 75.296C409.345 76.32 409.569 77.056 410.017 77.504C410.529 77.888 411.073 78.08 411.649 78.08C413.185 78.08 414.785 77.344 416.449 75.872C418.113 74.4 419.681 72.544 421.153 70.304C422.689 68 424.033 65.696 425.185 63.392L426.817 64.736C425.473 67.872 423.937 70.752 422.209 73.376C420.545 75.936 418.657 78.016 416.545 79.616C414.497 81.152 412.193 81.92 409.633 81.92ZM428.032 84.512C425.92 84.512 424.096 83.808 422.56 82.4C420.96 80.992 420.16 78.88 420.16 76.064C420.16 73.824 420.672 71.392 421.696 68.768C422.72 66.144 424.128 63.552 425.92 60.992C427.712 58.432 429.76 56.128 432.064 54.08C434.368 51.968 436.832 50.272 439.456 48.992C442.08 47.712 444.704 47.072 447.328 47.072C450.08 47.072 452.416 47.776 454.336 49.184C456.256 50.592 457.216 52.448 457.216 54.752C457.216 56.48 456.608 57.728 455.392 58.496C454.176 59.264 452.736 59.488 451.072 59.168C451.2 58.592 451.296 58.016 451.36 57.44C451.488 56.864 451.552 56.256 451.552 55.616C451.552 54.336 451.296 53.184 450.784 52.16C450.272 51.136 449.184 50.624 447.52 50.624C445.728 50.624 443.904 51.232 442.048 52.448C440.192 53.664 438.4 55.264 436.672 57.248C435.008 59.168 433.504 61.312 432.16 63.68C430.816 65.984 429.76 68.256 428.992 70.496C428.224 72.736 427.84 74.752 427.84 76.544C427.84 78.592 428.576 79.616 430.048 79.616C431.52 79.616 433.152 78.912 434.944 77.504C436.736 76.032 438.528 74.208 440.32 72.032C442.176 69.856 443.936 67.648 445.6 65.408C447.264 63.104 448.704 61.152 449.92 59.552C450.112 59.232 450.368 59.072 450.688 59.072C450.944 59.136 451.424 59.296 452.128 59.552C452.896 59.744 453.6 60.064 454.24 60.512C454.88 60.96 455.2 61.536 455.2 62.24C455.2 62.88 454.912 63.712 454.336 64.736C453.824 65.696 453.184 66.784 452.416 68C451.712 69.152 451.072 70.336 450.496 71.552C449.984 72.704 449.728 73.824 449.728 74.912C449.728 75.744 449.952 76.544 450.4 77.312C450.848 78.016 451.584 78.368 452.608 78.368C454.144 78.368 456.288 77.248 459.04 75.008C461.856 72.704 464.704 68.832 467.584 63.392L469.408 65.216C467.872 68.672 466.016 71.744 463.84 74.432C461.728 77.056 459.488 79.104 457.12 80.576C454.752 82.112 452.352 82.88 449.92 82.88C447.296 82.88 445.344 82.048 444.064 80.384C442.784 78.72 442.08 76.928 441.952 75.008C441.952 74.88 441.952 74.784 441.952 74.72C441.952 74.656 441.952 74.592 441.952 74.528C439.392 77.6 437.024 80.032 434.848 81.824C432.736 83.616 430.464 84.512 428.032 84.512ZM495.745 83.648C493.761 83.648 492.033 83.008 490.561 81.728C489.089 80.448 487.905 78.848 487.009 76.928C486.113 75.008 485.441 73.056 484.993 71.072C484.545 69.024 484.321 67.264 484.321 65.792C485.217 65.6 486.337 65.312 487.681 64.928C489.025 64.544 490.401 64.032 491.809 63.392C493.217 62.688 494.369 61.856 495.265 60.896C496.225 59.872 496.705 58.656 496.705 57.248C496.705 56.096 496.321 55.168 495.553 54.464C494.849 53.76 493.825 53.408 492.481 53.408C490.689 53.408 488.993 54.016 487.393 55.232C485.793 56.384 484.289 57.92 482.881 59.84C481.537 61.76 480.289 63.84 479.137 66.08C478.049 68.32 477.057 70.496 476.161 72.608C475.329 74.72 474.625 76.544 474.049 78.08C473.345 80 472.673 81.28 472.033 81.92C471.393 82.624 470.465 82.976 469.249 82.976C468.801 82.976 468.257 82.848 467.617 82.592C467.041 82.336 466.529 81.696 466.081 80.672C465.697 79.648 465.505 78.016 465.505 75.776C465.505 71.872 466.049 67.584 467.137 62.912C468.225 58.24 469.665 53.504 471.457 48.704C473.313 43.84 475.329 39.2 477.505 34.784C479.681 30.368 481.889 26.4 484.129 22.88C486.369 19.36 488.449 16.576 490.369 14.528C492.353 12.48 493.985 11.456 495.265 11.456C496.353 11.456 497.249 12.128 497.953 13.472C498.721 14.752 499.105 16.416 499.105 18.464C499.105 20.64 498.625 23.072 497.665 25.76C496.705 28.384 495.329 31.072 493.536 33.824C491.809 36.512 489.729 39.072 487.297 41.504C484.865 43.936 482.177 46.016 479.233 47.744C477.441 51.904 476.065 56.032 475.105 60.128C474.145 64.16 473.537 67.744 473.281 70.88C474.433 68.256 475.745 65.568 477.217 62.816C478.689 60.064 480.321 57.504 482.113 55.136C483.905 52.704 485.825 50.752 487.873 49.28C489.985 47.808 492.225 47.072 494.593 47.072C497.153 47.072 499.393 47.968 501.313 49.76C503.233 51.552 504.193 53.792 504.193 56.48C504.193 58.4 503.681 60.064 502.657 61.472C501.633 62.88 500.353 64.064 498.817 65.024C497.345 65.92 495.841 66.592 494.305 67.04C492.769 67.488 491.457 67.744 490.369 67.808C490.561 68.64 490.817 69.696 491.137 70.976C491.521 72.256 492.001 73.504 492.577 74.72C493.153 75.936 493.889 76.96 494.785 77.792C495.681 78.624 496.737 79.04 497.953 79.04C499.553 79.04 501.185 78.304 502.849 76.832C504.577 75.36 506.241 73.408 507.841 70.976C509.505 68.544 510.977 65.856 512.257 62.912L513.601 64.544C512.513 67.744 511.009 70.816 509.089 73.76C507.233 76.704 505.153 79.072 502.849 80.864C500.545 82.72 498.177 83.648 495.745 83.648ZM482.017 41.216C483.745 39.68 485.569 37.792 487.489 35.552C489.409 33.248 491.041 30.816 492.385 28.256C493.793 25.632 494.529 23.136 494.593 20.768C494.593 20.704 494.593 20.672 494.593 20.672C494.593 20.608 494.593 20.544 494.593 20.48C493.953 20.736 492.929 21.856 491.521 23.84C490.177 25.76 488.673 28.224 487.009 31.232C485.345 34.24 483.681 37.568 482.017 41.216Z" fill="white"/>
<path d="M48.0465 74.0462C47.6331 74.642 47.1894 75.216 46.7169 75.7702C42.8124 80.3507 37.6947 82.6428 32.577 82.6428C27.4593 82.6428 22.3416 80.3507 18.4354 75.7702C14.5782 71.2452 12.5787 65.2396 12.5787 59.1746C12.5787 54.9565 13.5472 50.7086 15.5315 46.914L19.1019 40.0889L32.577 14.3265L37.9208 24.5444L42.0177 32.375L49.6208 46.914C54.1092 55.4968 53.399 66.3917 48.0465 74.0462Z" fill="#f2c6ba"/>
<path d="M48.0465 74.0462L19.1019 40.0889L32.577 14.3265L37.9208 24.5444L42.0177 32.375L49.6208 46.914C54.1092 55.4969 53.399 66.3917 48.0465 74.0462Z" fill="#fd8e86"/>
</g>
<defs>
<clipPath id="clip0_1217_36">
<rect width="531" height="117" fill="white"/>
</clipPath>
</defs>
</svg>
