<svg xmlns="http://www.w3.org/2000/svg" version="1.1" xmlns:xlink="http://www.w3.org/1999/xlink" xmlns:svgjs="http://svgjs.dev/svgjs" viewBox="0 0 800 800"><defs><linearGradient x1="50%" y1="0%" x2="50%" y2="100%" id="ssscribble-grad"><stop stop-color="#d8654a" stop-opacity="1" offset="0%"></stop><stop stop-color="#1a6c68" stop-opacity="1" offset="100%"></stop></linearGradient></defs><g fill="none" stroke-width="1.5" stroke="url(#ssscribble-grad)" stroke-linecap="round"><path d="M650.5 179.56C758.76 212.42 950.18 241.38 1078.65 269.18 1059.29 300.61 904.89 337.78 720.02 386.81 605.54 447.3 614.97 526.38 717.71 624.11 857.01 726.72 950.66 832.84 963.39 924.63 897.36 982.07 778.06 993.9 647.13 950.47 520.42 867.92 426.71 761.33 366.37 666.43 330.3 625.86 311.89 656.3 296.98 758.72 288.23 901.17 270.06 1033.61 237.2 1100.57 204.34 1073.96 158.34 964.79 105.12 820.82 37.38 659.99 19 751.87 114.87 896.34 195.14 964.93 267.27 983.24 290.23 953.27 234.43 883.72 101.81 789.79 -71.69 690.13 -208.65 587.67 -247.55 498.8 -157.15 426.95 3.62 364.24 139.31 315.35 145.99 275.65 4.84 239.49 -193.23 206.14 -301.49 173.28 -234.55 140.42 -45.96 109.61 122.01 83.79 158.87 61.52 52.57 50.62 -109.76 56.38 -229.85 71.28 -229.29 106.03 -118.49 157.84 51.07 206.86 201.82 253.62 286.29 280.1 293.36 267.01 240.84 209.75 167.11 106.95 86 -21.36 33.59 -151.56 15.36 -246.04 19.24 -275.04 47.11 -226.21 85.38 -111.86 130.43 19.42 172.46 121.95 205.32 148.59 238.18 81.65 260.31 -44.12 277.24 -173.89 300.94 -263.65 332.85 -275.4 385.92 -210.76 461.09 -91.77 567.63 44.28 699.37 161.04 873.6 252.27 862.16 173.3 670.91 91.87 594.32 44.77 623.23 19.81 767.41 16.26 953.84 24.17 1078.84 46.78 1054.67 77.32 899.36 111.49 717.44 146.7 650.5 179.56Q650.5 179.56 650.5 179.56" opacity="0.88"></path><path d="M616.5 194.49C712.34 225 888.35 261.14 1026.31 304.1 1047.22 349.61 937.58 406.24 766.19 475.89 615.97 550.34 555.61 637.21 592.4 730.84 700.88 816.08 818.31 890.25 896.25 938.06 918.94 950.28 876.95 920.61 793.25 849.87 681.54 761.03 570.86 668.51 476.87 602.38 391.99 592.23 328.76 644.85 282.06 753.73 240.88 888.15 206.91 1007.11 176.4 1066.57 145.88 1044.96 120.27 949.85 103.9 818.32 93.06 691.52 100.78 607.25 132.78 582.91 173.89 619.86 234.33 696.88 299 785.56 335.68 870.1 333.86 922.6 271.17 935.92 153.24 913.99 -0.36 860.1 -140.61 788.04 -209.18 701.88 -176.18 616.26 -48.33 539.18 100.69 463.74 192.96 400.63 160.27 349.82 10.54 300.95 -171.65 261.47 -267.49 230.95 -210.8 200.44 -41.39 180.33 127.95 171.66 199.83 164.91 141.7 172.51 3.79 195.07 -139.81 219.27 -205.43 254.64 -169.31 293.78 -49.7 318.81 102.9 328.9 235.8 310.85 324.1 257.55 351.86 168.88 334.86 52.57 282.99 -67.88 226.16 -172.27 182.44 -231.59 143.08 -229.64 126.8 -162.75 130.69 -47.73 139.39 72.01 160.76 160.95 191.27 182.59 221.78 123.14 260 10.38 308.84 -112.26 362.5 -209.37 434.29 -244.65 526.53 -212.14 623.13 -123.66 730.21 -3.77 829.1 116.83 893.13 219.35 909.18 285.21 860.88 312.99 767.96 305.18 651.54 274.82 563.7 236.61 559.35 190.02 652.33 153.4 818.31 131.83 978.59 115.04 1054.09 113.92 993.98 125.95 836.41 140.54 673.19 163.98 616.5 194.49Q616.5 194.49 616.5 194.49" opacity="0.67"></path><path d="M582.5 300.83C666.48 329 825.72 368.31 967 418.12 1021.27 468.68 958.81 530.48 817.82 601.5 658.3 670.7 547.04 743.47 514.54 811.63 560.95 864.12 653.55 897.03 750.19 900.36 830.96 875.13 865.36 818.29 854.23 737.39 806.09 656.66 733.63 587.5 655 552.62 568.51 569.89 492.49 639.38 432.07 750.22 372.78 874.69 328.81 980.23 300.64 1032.57 272.47 1015.5 261.45 933.95 267.61 816.08 274.92 693.7 299.7 598.82 337.37 550.33 367.19 554.52 393.27 601.56 397.99 672.08 365.72 754.88 290.88 824.12 173.19 867.92 39.63 887.55 -86.35 876.59 -162.09 842.33 -158.91 789.77 -72.91 727.31 65.95 663.89 186.29 596 232.72 534.72 167.58 483.54 15.43 432.34 -149.51 391.99 -233.49 363.82 -186.33 335.65 -36.77 321 128.08 319.07 226.48 317.13 215.44 327.17 115.84 346.25 -77.98 368.89 -63.83 362.21 121.58 290.94 249.99 210.23 343.72 107.6 396.57 -4.52 407.37 -140.52 338.63 -134.28 319.58 16.64 311.98 123.64 321.79 199.5 349.95 216.59 378.12 164.27 423.32 64.45 484.03 -49.16 544.71 -149.14 618.94 -202.6 699.48 -199.24 768.53 -143.72 825.49 -49.31 852.81 60.74 843.36 170.97 790.07 261.22 698.58 323.36 604.5 356.95 529.06 364.48 511.75 355.4 574.33 330.65 706.89 304.27 867.72 283.87 987.96 261.67 1015.03 251.11 927.5 253.66 773.51 256.98 629.66 272.67 582.5 300.83Q582.5 300.83 582.5 300.83" opacity="0.27"></path><path d="M548.5 451.29C621.21 477.11 762.74 513.81 901.64 559.55 981 604.45 963.49 656.29 863.88 710.88 719.67 759.57 584.61 803.64 497.62 835.61 473.91 851.31 508.96 845.68 577.6 814.59 665.08 766.48 738.34 699.77 783.47 625.01 804.57 563.55 794.94 522.96 764.77 518.4 719.53 558.37 668.88 638.98 622.04 747.64 572.39 860.65 532.93 952.98 507.11 998.57 481.29 985.59 470.33 916.95 471.29 813.55 469.44 699.19 473.12 599.77 473.61 533.45 459.04 508.71 426.15 523.98 365.26 568.05 280.33 634.31 170 702.31 48.68 759.24 -53.79 805.42 -119.45 828.69 -122.63 830.29 -62.52 816 49.37 786.49 174.66 748.67 255.35 703.59 258.16 657.99 168.83 616.67 19.97 573.95 -126.78 538.6 -199.49 512.78 -161.1 486.95 -31.63 471.89 123.58 465.91 239.19 458.54 269.82 457.17 215.65 457.5 101.55 450.58 -17.81 437.57 -98.76 412.08 -123.53 370.7 -82.98 310.36 3.04 230.34 117.8 139.57 231.96 40.97 327.42 -52.18 404.06 -123.14 453.04 -161.57 481.29 -155.76 493.96 -108.39 499.54 -23.67 506.99 80.72 510.95 174.16 524.18 237.58 550 250.58 575.82 205 613 117.92 657.74 14.87 719.68 -116.79 785.71 -115.46 745.63 4.75 689.97 106.4 612.88 203.72 531.96 285.67 479.77 350.6 469.84 393.3 521.49 417.4 629.32 425.22 771.85 423.67 904.87 419.73 977.97 409.88 962.04 405 856.39 408.8 711.13 411.75 586.89 425.47 548.5 451.29Q548.5 451.29 548.5 451.29" opacity="0.80"></path><path d="M514.51 578.93C576.64 602.4 699.94 631.76 831.43 664.98 926.9 696.59 948.06 728.83 893.98 757.47 783.74 779.46 653.26 791.71 538.57 789.46 459.31 775.36 429.58 743.59 442.35 694.79 490.74 640.88 552.79 580.74 611.17 524.8 667.13 489.21 703.17 478.05 718.78 499.94 723.8 556.64 713.88 642.62 695.15 745.43 672.84 845.85 648.39 925.34 624.92 964.58 601.45 955.23 580.06 898.71 558.11 810.15 532.57 706.73 499.79 608.44 454.1 531.3 397.81 483.86 323.12 469.78 230.97 484.3 136.42 524.4 40.67 576.31 -38.47 629.05 -82.01 682.85 -80.11 724.08 -25.29 749.78 64.96 765.98 174.38 767.01 267.42 756.31 304.29 738.99 269.77 715.36 165.25 689.4 24.7 661.63 -103.35 635.04 -165.48 611.57 -135.1 588.1 -25.54 568.85 115.79 552.36 239.23 534.05 302.7 514.98 294.07 491.62 220.99 461.65 117.15 421.97 18.79 369.59 -55.02 307.71 -80.32 232.79 -58.6 148.22 2.34 64.72 87.5 -15.02 178.67 -79.56 273.4 -118.51 354.9 -125.49 419.49 -95.26 475.46 -35.32 517.2 49.6 549.14 143.96 577.64 223.47 602.48 275.23 625.95 284.58 649.42 245.34 670.41 170.61 686.19 79.24 698.52 -14.5 699.48 -87.12 684.2 -126.61 660.29 -131.3 617.45 -99.09 558.89 -39.06 503.89 41.31 452.43 129.28 422.23 213.95 431.26 293.52 484.38 358.98 582.63 409.26 705.43 447.69 830.32 474.09 920.61 492.77 946.47 504.81 896.39 515.28 782.02 527.93 649.74 538.97 544.91 555.45 514.5 578.92Q514.51 578.93 514.51 578.93" opacity="0.57"></path><path d="M480.43 626.85C532.27 647.98 637.08 668.23 756.98 686.29 859.81 702.85 910.76 714.45 900.14 718.41 834.31 717.6 731.74 705.79 619.24 681.47 513.67 651.82 436.08 611.03 392.28 562.53 381.21 518.14 396.51 476.79 426.03 446.92 468.99 438.77 509.21 454.01 539.62 496.23 569.09 563.05 584.91 648.95 587.16 742.86 587.81 830 577.26 897.18 556.13 930.47 535.01 924.26 504.32 878.96 463.83 805.18 421.73 714.87 367.48 622.65 301.41 541.7 234.39 479.32 159.38 441.77 83.86 428.66 21.78 439.2 -23.84 466.04 -40.46 501.33 -24.35 545.37 28.19 586.44 111.76 619.71 244.08 660.45 299.89 681.21 157.41 667.55 29.36 654.72 -79.72 637.24 -131.56 616.12 -107.94 595 -17.35 571.22 106.97 544.22 229.28 515.85 314.31 481.8 344.7 440.54 317.75 395.45 248.95 341.04 162.68 277.56 73.1 211.73 6.77 140.33 -26.74 68.6 -29.53 5.62 -0.82 -46.27 48.56 -78.8 114.65 -87.7 184.85 -69.11 250.46 -22.22 317.47 43.24 374.04 123.42 418.46 205.58 461.87 271.22 494.31 312.25 515.43 318.48 536.56 285.2 545.36 222.31 541.8 143.32 537.21 57.56 519.07 -16.31 488.67 -67.65 459.67 -94.4 424.27 -90.7 390.73 -60.55 373.9 -8.69 375.52 57.69 406 129.78 467.21 205.96 558.58 277.08 670.16 339.29 778.43 396.18 866.17 442.77 908.61 480.19 893.7 512.84 820.69 539.67 706.54 562.95 590.36 584.73 504.06 605.73 480.43 626.85Q480.43 626.85 480.43 626.85" opacity="0.55"></path><path d="M446.5 574C489.52 592.78 576.61 605.44 681.76 611.68 817.91 615.89 824.84 580.14 708.15 539.46 609.07 510.14 515.42 476.46 438.3 442.67 379.01 417.91 342.97 401.4 326.15 398.78 325.88 415.02 335.17 450.55 346.76 505.67 364.15 576.01 376.43 657.04 379.88 739.72 384.08 813.31 377.48 868.83 358.7 896.59 339.92 893.03 309.85 857.9 270.24 798.41 231.38 722.55 184.94 640.39 135.01 562.04 90.87 492.99 50.67 440.07 21.99 405.37 9.87 388.98 18.95 388.67 53.63 399.91 106.14 422.74 177.53 449.29 257.05 474.81 323.41 503.28 368.14 525.92 375.54 540.75 337.52 554.93 257.58 560.67 148.81 557.87 36.41 554.54 -54.47 543.51 -97.49 524.74 -80.54 505.96 -8.46 480.32 96.55 448.24 210.33 415.62 305.75 375.72 365.12 329 381.15 281.62 356.34 228.07 303.26 170.66 229.64 116.19 156.29 62.69 95.9 15.24 36.62 -31.58 51.95 -12.53 102.16 60.79 144.95 125.38 186.84 196.85 223.16 265.47 260.71 317.71 289.9 349.03 308.68 352.59 327.46 324.83 334.95 273.11 332.81 206.77 331.91 131.34 324.18 61 313.93 4.42 310.67 -36.94 312.76 -55.63 327.08 -52.31 357.89 -30.13 408.48 8.62 480.54 58 565.53 116.4 661.16 177.03 754.32 235.3 826.96 294.04 868.63 346.73 866.38 392.02 820.79 435.46 736.07 472.03 629.54 502.03 531.77 531.21 463.47 555.21 446.49 573.99Q446.5 574 446.5 574" opacity="0.26"></path><path d="M412.49 443.62C520.75 476.48 704.22 477.82 823.4 451.85 821.39 428.23 702.7 388.72 550.66 356.65 404.74 363.23 312.99 416.55 266.29 525.09 244.68 663.36 227.78 795.64 194.92 862.58 162.06 835.94 116.34 726.64 81.01 588.47 70.76 460.03 111.22 376.76 214.08 341.98 323.05 348.53 406.89 372.59 384.8 389.36 241.54 412.09 44.75 410.59 -63.5 377.73 3.43 344.87 190.47 283.76 356.69 204.08 418.42 130.36 365.08 55.02 266.27 5.39 155.46 -2.89 96.99 45.52 90.95 149.88 108.91 263.96 145.24 359.94 178.1 386.58 210.96 319.64 237.24 200.68 276.23 86.5 339.22 2.04 448.98 -16.41 602.86 20.06 744.73 95.21 832.93 186 795.28 266.57 653.15 349.49 479.43 410.76 412.49 443.62Q412.49 443.62 412.49 443.62" opacity="0.49"></path><path d="M378.51 293.89C462.52 322.06 614.72 326.72 742.76 315.45 802.34 311.15 765.28 306.33 670.53 318.63 543.3 361.33 428.59 440.01 346.68 551.06 275.6 670.73 229.06 776.24 200.89 828.58 172.72 811.51 165.6 729.59 187.87 617.09 220.97 497.79 291.72 400.01 382.03 335.39 439.87 298.91 447.05 284.75 366.82 277.2 218.13 278.23 54.52 268.77 -29.48 240.61 17.63 212.44 165.87 168.23 324.71 118.38 433.71 77.12 457.93 47.33 421.86 46.89 343.06 74.59 272 142.48 233.56 241.13 202.22 332.98 202.98 403.5 231.14 420.59 259.3 368.26 312.2 274.17 392.34 175.14 479.6 84.72 594.62 35.92 710.34 30.13 783.34 54.74 789.01 103.53 700.67 156.64 562.49 216.71 425.66 265.72 378.5 293.88Q378.51 293.89 378.51 293.89" opacity="0.95"></path><path d="M344.51 191.31C406.63 214.78 524.11 229.6 641.41 241.3 732.37 259.64 761.1 286.9 736.17 331.76 672.41 394.32 592.28 479.79 521.39 579.62 447.36 675.69 395.08 755.35 371.61 794.58 348.14 785.23 355.7 728.1 389.05 643.64 419.26 544.99 462.76 451.44 495.76 376.17 489.92 314.42 436.3 271.52 328.13 241.88 193.62 218.86 66.63 197.9 4.51 174.43 34.89 150.95 143.61 127.2 277.68 109.54 401.08 98.5 478.01 104.77 506.02 135.75 493.36 180.26 462.43 248.9 438 330.35 407.64 397.6 400.47 445.21 423.94 454.59 447.39 415.36 499.28 345.23 570.31 266.35 635.43 183.72 702.99 123.14 746.43 91.35 749.2 77.25 697.18 86.62 590.99 108.95 474.13 137.93 374.91 167.83 344.5 191.3Q344.51 191.31 344.51 191.31" opacity="0.46"></path><path d="M310.47 181.51C353.34 200.29 435.88 223.51 528.45 252.52 620.38 285.33 682.38 329.96 708.92 387.57 710.83 451.72 688.44 527.59 656.99 606.5 618.11 676.89 584.81 732.76 566.04 760.53 547.26 756.99 544.77 721.09 551.11 664.07 550.02 592.48 543.11 517.38 516.58 449.55 465.43 384.52 383.51 331.44 277.82 291.72 171.49 255.04 81.34 227.32 38.47 208.54 55.58 189.76 127.47 181.71 226.37 185.84 334.97 193.03 427.9 216.8 493.15 257.22 536.48 300.44 557.65 355.62 568.32 413.45 570.93 456.7 577.98 484.99 596.76 488.53 615.54 460.76 644.27 412.5 674.2 355.88 696.07 290.73 704.21 234.78 685.48 195.24 644.85 162.24 571.83 146.91 476.99 146.65 391.86 150.17 327.58 162.73 310.47 181.51Q310.47 181.51 310.47 181.51" opacity="0.38"></path><path d="M276.51 268.98C360.52 297.15 498.62 368.01 590.42 468.1 651.79 568.73 650.96 674.24 622.79 726.58 594.62 709.51 544.45 626.76 446.16 533.6 317.45 432.15 156.52 356.07 72.51 327.9 119.64 299.73 265.31 324.82 398.67 389.35 513.82 445.59 578.74 505.51 606.91 522.58 635.08 470.24 621.16 387.56 542.92 323.85 446.48 260.68 323.64 240.81 276.51 268.98Q276.51 268.98 276.51 268.98" opacity="0.20"></path><path d="M242.5 414.68C377.05 452.24 532.87 609.62 495.32 692.57 457.76 654.67 241.05 516.83 106.5 479.27 195.89 441.72 408.16 518.67 445.72 556.57 483.27 473.62 331.89 377.13 242.5 414.68Q242.5 414.68 242.5 414.68" opacity="0.23"></path></g></svg>